<?xml version="1.0" encoding="UTF-8"?>
<svg width="1280px" height="856px" viewBox="0 0 1280 856" version="1.1" xmlns="http://www.w3.org/2000/svg" xmlns:xlink="http://www.w3.org/1999/xlink">
    <!-- Generator: Sketch 41 (35326) - http://www.bohemiancoding.com/sketch -->
    <title>Group</title>
    <desc>Created with Sketch.</desc>
    <defs></defs>
    <g id="Page-1" stroke="none" stroke-width="1" fill="none" fill-rule="evenodd">
        <g id="Group">
            <path d="M1223.72488,517.208431 C1166.4818,710.767581 926.75404,856 639.71145,856 C352.668861,856 112.941101,710.767581 55.6980174,517.208431 L120.199451,517.208431 C176.267903,685.649198 387.588015,810.894614 639.71145,810.894614 C891.834886,810.894614 1103.155,685.649198 1159.22345,517.208431 L1223.72488,517.208431 Z M1217.45069,319.747073 C1150.57146,135.783829 917.259755,0 639.71145,0 C362.163146,0 128.851442,135.783829 61.9722157,319.747073 L127.271416,319.747073 C192.416279,160.996519 397.185955,45.1053864 639.71145,45.1053864 C882.236946,45.1053864 1087.00662,160.996519 1152.15148,319.747072 L1217.45069,319.747073 Z" id="Combined-Shape" fill="#592303"></path>
            <path d="M55.987453,453.039121 C60.1837248,453.039121 63.1719341,452.403332 64.9521705,451.131734 C66.732407,449.860137 67.6225119,447.952769 67.6225119,445.409574 C67.6225119,443.629337 66.8913543,442.071654 65.4290172,440.736477 C63.9666801,439.401299 61.0102603,437.843616 56.5596691,436.063379 C47.1498476,432.502906 38.9163773,429.101434 31.8590113,425.85886 C24.8016452,422.616287 18.9523844,419.024078 14.3110536,415.082125 C9.66972274,411.140173 6.20467155,406.530701 3.91579606,401.253572 C1.62692058,395.976442 0.4825,389.586761 0.4825,382.084335 C0.4825,374.963389 1.59513112,368.573708 3.82042673,362.915099 C6.04572234,357.25649 9.66972084,352.424492 14.6925309,348.41896 C19.715341,344.413428 26.3911277,341.36164 34.7200913,339.263504 C43.0490549,337.165368 53.3170506,336.116316 65.5243866,336.116316 C76.5872847,336.116316 87.0142278,337.228947 96.8055285,339.454243 C106.596829,341.679538 114.734931,344.635958 121.220078,348.323591 L121.220078,382.465813 L81.1649575,382.465813 C81.1649575,378.77818 80.1476948,376.266813 78.1131388,374.931635 C76.0785828,373.596458 73.5990049,372.928879 70.6743306,372.928879 C66.4780589,372.928879 63.4580602,373.4693 61.6142438,374.550158 C59.7704274,375.631016 58.8485331,377.506594 58.8485331,380.176949 C58.8485331,382.338664 59.8340064,383.928137 61.8049825,384.945415 C63.7759586,385.962693 66.7323784,387.107114 70.6743306,388.378712 C78.0495961,390.794747 85.011488,393.337904 91.560215,396.008258 C98.1089421,398.678613 103.862834,401.984717 108.822065,405.926669 C113.781295,409.868621 117.691399,414.637041 120.552493,420.232069 C123.413587,425.827098 124.844113,432.693622 124.844113,440.831846 C124.844113,457.362613 119.503484,469.665134 108.822065,477.739779 C98.1406458,485.814423 82.5002312,489.851684 61.9003518,489.851684 C50.2016549,489.851684 38.9481859,488.834421 28.1396072,486.799865 C17.3310285,484.765309 8.68429525,482.34931 2.19914803,479.551796 L2.19914803,441.785539 L44.1616555,441.785539 C44.1616555,445.600332 44.9246025,448.429594 46.4505195,450.27341 C47.9764365,452.117226 51.1553826,453.039121 55.987453,453.039121 Z M131.710705,338.786657 L222.88379,338.786657 L244.627998,404.210021 L265.609252,338.786657 L353.539779,338.786657 L353.539779,370.067799 L342.095458,370.067799 L342.095458,455.900201 L353.539779,455.900201 L353.539779,487.181343 L277.244311,487.181343 L277.244311,455.900201 L288.688631,455.900201 L288.688631,380.558426 L250.731635,487.181343 L230.131859,487.181343 L187.024919,380.176949 L187.024919,455.900201 L198.46924,455.900201 L198.46924,487.181343 L131.710705,487.181343 L131.710705,455.900201 L143.155025,455.900201 L143.155025,370.067799 L131.710705,370.067799 L131.710705,338.786657 Z M433.268543,455.900201 C437.591974,455.900201 440.834499,454.78757 442.996215,452.562274 C445.157931,450.336978 446.238772,446.744769 446.238772,441.785539 L446.238772,384.182461 C446.238772,379.223231 445.157931,375.631022 442.996215,373.405726 C440.834499,371.18043 437.591974,370.067799 433.268543,370.067799 C428.945111,370.067799 425.702586,371.18043 423.540871,373.405726 C421.379155,375.631022 420.298313,379.223231 420.298313,384.182461 L420.298313,441.785539 C420.298313,446.744769 421.379155,450.336978 423.540871,452.562274 C425.702586,454.78757 428.945111,455.900201 433.268543,455.900201 Z M506.130715,412.984 C506.130715,426.971572 504.414084,438.829041 500.980771,448.556762 C497.547457,458.284483 492.68367,466.200058 486.389262,472.303726 C480.094855,478.407394 472.433595,482.857919 463.405253,485.655433 C454.37691,488.452948 444.331441,489.851684 433.268543,489.851684 C422.205645,489.851684 412.160175,488.452948 403.131833,485.655433 C394.103491,482.857919 386.442231,478.407394 380.147823,472.303726 C373.853416,466.200058 368.989628,458.284483 365.556315,448.556762 C362.123002,438.829041 360.406371,426.971572 360.406371,412.984 C360.406371,399.123587 362.123002,387.297908 365.556315,377.506607 C368.989628,367.715307 373.853416,359.767942 380.147823,353.664274 C386.442231,347.560606 394.103491,343.110081 403.131833,340.312567 C412.160175,337.515052 422.205645,336.116316 433.268543,336.116316 C444.331441,336.116316 454.37691,337.515052 463.405253,340.312567 C472.433595,343.110081 480.094855,347.560606 486.389262,353.664274 C492.68367,359.767942 497.547457,367.715307 500.980771,377.506607 C504.414084,387.297908 506.130715,399.123587 506.130715,412.984 Z M585.478002,455.900201 C589.801433,455.900201 593.043958,454.78757 595.205674,452.562274 C597.36739,450.336978 598.448231,446.744769 598.448231,441.785539 L598.448231,384.182461 C598.448231,379.223231 597.36739,375.631022 595.205674,373.405726 C593.043958,371.18043 589.801433,370.067799 585.478002,370.067799 C581.15457,370.067799 577.912045,371.18043 575.750329,373.405726 C573.588614,375.631022 572.507772,379.223231 572.507772,384.182461 L572.507772,441.785539 C572.507772,446.744769 573.588614,450.336978 575.750329,452.562274 C577.912045,454.78757 581.15457,455.900201 585.478002,455.900201 Z M658.340174,412.984 C658.340174,426.971572 656.623543,438.829041 653.19023,448.556762 C649.756916,458.284483 644.893129,466.200058 638.598721,472.303726 C632.304314,478.407394 624.643054,482.857919 615.614712,485.655433 C606.586369,488.452948 596.5409,489.851684 585.478002,489.851684 C574.415103,489.851684 564.369634,488.452948 555.341292,485.655433 C546.31295,482.857919 538.65169,478.407394 532.357282,472.303726 C526.062874,466.200058 521.199087,458.284483 517.765774,448.556762 C514.33246,438.829041 512.61583,426.971572 512.61583,412.984 C512.61583,399.123587 514.33246,387.297908 517.765774,377.506607 C521.199087,367.715307 526.062874,359.767942 532.357282,353.664274 C538.65169,347.560606 546.31295,343.110081 555.341292,340.312567 C564.369634,337.515052 574.415103,336.116316 585.478002,336.116316 C596.5409,336.116316 606.586369,337.515052 615.614712,340.312567 C624.643054,343.110081 632.304314,347.560606 638.598721,353.664274 C644.893129,359.767942 649.756916,367.715307 653.19023,377.506607 C656.623543,387.297908 658.340174,399.123587 658.340174,412.984 Z M750.276213,426.335707 L796.053494,426.335707 L796.053494,475.737023 C793.510299,477.26294 790.426721,478.884202 786.802668,480.600859 C783.178615,482.317515 778.982406,483.843409 774.213916,485.178587 C769.445425,486.513764 764.041217,487.626395 758.001129,488.516513 C751.961041,489.406632 745.189886,489.851684 737.68746,489.851684 C726.497403,489.851684 716.388354,488.452948 707.360012,485.655433 C698.33167,482.857919 690.63862,478.407394 684.280633,472.303726 C677.922645,466.200058 673.027068,458.284483 669.593755,448.556762 C666.160442,438.829041 664.443811,426.971572 664.443811,412.984 C664.443811,399.123587 666.160442,387.297908 669.593755,377.506607 C673.027068,367.715307 677.890856,359.767942 684.185263,353.664274 C690.479671,347.560606 698.140931,343.110081 707.169273,340.312567 C716.197615,337.515052 726.243085,336.116316 737.305983,336.116316 C744.935568,336.116316 751.738513,336.561368 757.715021,337.451487 C763.691529,338.341605 769.063948,339.454236 773.832439,340.789413 C778.600929,342.124591 782.797138,343.650485 786.421191,345.367141 C790.045244,347.083798 793.255979,348.70506 796.053494,350.230977 L796.053494,397.915645 L750.276213,397.915645 L750.276213,384.182461 C750.276213,379.223231 749.195371,375.631022 747.033655,373.405726 C744.87194,371.18043 741.629415,370.067799 737.305983,370.067799 C732.982552,370.067799 729.740027,371.18043 727.578311,373.405726 C725.416595,375.631022 724.335754,379.223231 724.335754,384.182461 L724.335754,441.785539 C724.335754,446.744769 725.416595,450.336978 727.578311,452.562274 C729.740027,454.78757 732.982552,455.900201 737.305983,455.900201 C741.629415,455.900201 744.87194,454.78757 747.033655,452.562274 C749.195371,450.336978 750.276213,446.744769 750.276213,441.785539 L750.276213,426.335707 Z M890.087658,338.786657 L964.666478,338.786657 L964.666478,370.067799 L953.222158,370.067799 L953.222158,455.900201 L964.666478,455.900201 L964.666478,487.181343 L890.087658,487.181343 L890.087658,455.900201 L899.81533,455.900201 L899.81533,424.42832 L871.20453,424.42832 L871.20453,455.900201 L880.932202,455.900201 L880.932202,487.181343 L806.353382,487.181343 L806.353382,455.900201 L817.797702,455.900201 L817.797702,370.067799 L806.353382,370.067799 L806.353382,338.786657 L880.932202,338.786657 L880.932202,370.067799 L871.20453,370.067799 L871.20453,399.060077 L899.81533,399.060077 L899.81533,370.067799 L890.087658,370.067799 L890.087658,338.786657 Z M1042.67859,370.067799 L1036.00274,370.067799 L1047.25632,403.447066 L1049.16371,403.447066 L1060.41729,370.067799 L1053.74144,370.067799 L1053.74144,338.786657 L1111.34452,338.786657 L1111.34452,370.067799 L1104.66866,370.067799 L1067.8561,436.063379 L1067.8561,455.900201 L1079.30042,455.900201 L1079.30042,487.181343 L1003.00495,487.181343 L1003.00495,455.900201 L1014.44927,455.900201 L1014.44927,436.063379 L976.492276,370.067799 L969.625684,370.067799 L969.625684,338.786657 L1042.67859,338.786657 L1042.67859,370.067799 Z M1117.06668,338.786657 L1143.77009,338.786657 L1143.77009,363.201207 L1130.9906,382.656551 L1118.21111,382.656551 L1126.41287,363.201207 L1117.06668,363.201207 L1117.06668,338.786657 Z M1211.10084,453.039121 C1215.29711,453.039121 1218.28532,452.403332 1220.06556,451.131734 C1221.84579,449.860137 1222.7359,447.952769 1222.7359,445.409574 C1222.7359,443.629337 1222.00474,442.071654 1220.5424,440.736477 C1219.08007,439.401299 1216.12365,437.843616 1211.67306,436.063379 C1202.26323,432.502906 1194.02976,429.101434 1186.9724,425.85886 C1179.91503,422.616287 1174.06577,419.024078 1169.42444,415.082125 C1164.78311,411.140173 1161.31806,406.530701 1159.02918,401.253572 C1156.74031,395.976442 1155.59589,389.586761 1155.59589,382.084335 C1155.59589,374.963389 1156.70852,368.573708 1158.93381,362.915099 C1161.15911,357.25649 1164.78311,352.424492 1169.80592,348.41896 C1174.82873,344.413428 1181.50451,341.36164 1189.83348,339.263504 C1198.16244,337.165368 1208.43044,336.116316 1220.63777,336.116316 C1231.70067,336.116316 1242.12761,337.228947 1251.91892,339.454243 C1261.71022,341.679538 1269.84832,344.635958 1276.33347,348.323591 L1276.33347,382.465813 L1236.27834,382.465813 C1236.27834,378.77818 1235.26108,376.266813 1233.22653,374.931635 C1231.19197,373.596458 1228.71239,372.928879 1225.78772,372.928879 C1221.59145,372.928879 1218.57145,373.4693 1216.72763,374.550158 C1214.88381,375.631016 1213.96192,377.506594 1213.96192,380.176949 C1213.96192,382.338664 1214.94739,383.928137 1216.91837,384.945415 C1218.88935,385.962693 1221.84577,387.107114 1225.78772,388.378712 C1233.16298,390.794747 1240.12487,393.337904 1246.6736,396.008258 C1253.22233,398.678613 1258.97622,401.984717 1263.93545,405.926669 C1268.89468,409.868621 1272.80479,414.637041 1275.66588,420.232069 C1278.52697,425.827098 1279.9575,432.693622 1279.9575,440.831846 C1279.9575,457.362613 1274.61687,469.665134 1263.93545,477.739779 C1253.25403,485.814423 1237.61362,489.851684 1217.01374,489.851684 C1205.31504,489.851684 1194.06157,488.834421 1183.25299,486.799865 C1172.44442,484.765309 1163.79768,482.34931 1157.31254,479.551796 L1157.31254,441.785539 L1199.27504,441.785539 C1199.27504,445.600332 1200.03799,448.429594 1201.56391,450.27341 C1203.08982,452.117226 1206.26877,453.039121 1211.10084,453.039121 Z" id="SMOOCHY’S" fill="#582302"></path>
            <path d="M317.975451,263.371268 C310.497422,267.367162 302.134713,269.365079 292.887073,269.365079 C288.206169,269.365079 283.910648,268.608724 280.000381,267.095993 C276.090113,265.583262 272.722196,263.442637 269.896529,260.674053 C267.070861,257.90547 264.858882,254.580365 263.260524,250.69864 C261.662167,246.816915 260.863,242.507123 260.863,237.769135 C260.863,232.916978 261.662167,228.50729 263.260524,224.539939 C264.858882,220.572587 267.070861,217.190399 269.896529,214.393274 C272.722196,211.596148 276.090113,209.441252 280.000381,207.928521 C283.910648,206.41579 288.206169,205.659436 292.887073,205.659436 C297.510893,205.659436 301.849227,206.215998 305.902205,207.32914 C309.955182,208.442282 313.579974,210.425928 316.776689,213.280137 L308.813484,221.328969 C306.872621,219.44519 304.517934,217.989565 301.74935,216.96205 C298.980767,215.934534 296.055246,215.420784 292.972699,215.420784 C289.833068,215.420784 286.993172,215.977347 284.452926,217.090488 C281.912679,218.20363 279.729241,219.74488 277.902547,221.714285 C276.075853,223.68369 274.66304,225.981294 273.664067,228.607167 C272.665093,231.23304 272.165614,234.058665 272.165614,237.084128 C272.165614,240.337927 272.665093,243.334802 273.664067,246.074844 C274.66304,248.814885 276.075853,251.183843 277.902547,253.18179 C279.729241,255.179737 281.912679,256.749529 284.452926,257.891213 C286.993172,259.032897 289.833068,259.60373 292.972699,259.60373 C295.71274,259.60373 298.295762,259.346855 300.72184,258.833097 C303.147918,258.31934 305.302814,257.520173 307.186593,256.435573 L307.186593,242.136054 L294.770842,242.136054 L294.770842,232.374705 L317.975451,232.374705 L317.975451,263.371268 Z M325.220351,237.769135 C325.220351,232.916978 326.019518,228.50729 327.617875,224.539939 C329.216233,220.572587 331.428212,217.190399 334.25388,214.393274 C337.079547,211.596148 340.447464,209.441252 344.357732,207.928521 C348.267999,206.41579 352.56352,205.659436 357.244424,205.659436 C361.982413,205.602351 366.320746,206.301622 370.259556,207.757269 C374.198365,209.212916 377.594824,211.339271 380.449034,214.136396 C383.303243,216.933522 385.529494,220.301439 387.127851,224.240248 C388.726208,228.179058 389.525375,232.574475 389.525375,237.426631 C389.525375,242.164619 388.726208,246.474411 387.127851,250.356137 C385.529494,254.237862 383.303243,257.577237 380.449034,260.374363 C377.594824,263.171488 374.198365,265.354926 370.259556,266.924742 C366.320746,268.494557 361.982413,269.307994 357.244424,269.365079 C352.56352,269.365079 348.267999,268.608724 344.357732,267.095993 C340.447464,265.583262 337.079547,263.442637 334.25388,260.674053 C331.428212,257.90547 329.216233,254.580365 327.617875,250.69864 C326.019518,246.816915 325.220351,242.507123 325.220351,237.769135 Z M336.522965,237.084128 C336.522965,240.337927 337.022444,243.334802 338.021418,246.074844 C339.020391,248.814885 340.433204,251.183843 342.259898,253.18179 C344.086592,255.179737 346.27003,256.749529 348.810277,257.891213 C351.350523,259.032897 354.190419,259.60373 357.33005,259.60373 C360.469681,259.60373 363.323848,259.032897 365.892637,257.891213 C368.461425,256.749529 370.659134,255.179737 372.485828,253.18179 C374.312522,251.183843 375.725335,248.814885 376.724308,246.074844 C377.723282,243.334802 378.222761,240.337927 378.222761,237.084128 C378.222761,234.058665 377.723282,231.23304 376.724308,228.607167 C375.725335,225.981294 374.312522,223.68369 372.485828,221.714285 C370.659134,219.74488 368.461425,218.20363 365.892637,217.090488 C363.323848,215.977347 360.469681,215.420784 357.33005,215.420784 C354.190419,215.420784 351.350523,215.977347 348.810277,217.090488 C346.27003,218.20363 344.086592,219.74488 342.259898,221.714285 C340.433204,223.68369 339.020391,225.981294 338.021418,228.607167 C337.022444,231.23304 336.522965,234.058665 336.522965,237.084128 Z M446.090773,245.561088 C446.090773,249.214477 445.462856,252.51104 444.207004,255.450876 C442.951151,258.390712 441.238651,260.888108 439.069452,262.943139 C436.900252,264.99817 434.331502,266.582232 431.363124,267.695374 C428.394746,268.808516 425.169537,269.365079 421.687401,269.365079 C418.205265,269.365079 414.980057,268.808516 412.011679,267.695374 C409.0433,266.582232 406.460279,264.99817 404.262538,262.943139 C402.064796,260.888108 400.352296,258.390712 399.124986,255.450876 C397.897676,252.51104 397.28403,249.214477 397.28403,245.561088 L397.28403,207.200701 L408.072889,207.200701 L408.072889,245.218585 C408.072889,246.702774 408.301222,248.258295 408.757896,249.885195 C409.214569,251.512094 409.970924,253.010532 411.026981,254.380552 C412.083039,255.750573 413.481581,256.877969 415.222649,257.762774 C416.963716,258.647579 419.118613,259.089975 421.687401,259.089975 C424.25619,259.089975 426.411086,258.647579 428.152154,257.762774 C429.893222,256.877969 431.291764,255.750573 432.347821,254.380552 C433.403879,253.010532 434.160233,251.512094 434.616907,249.885195 C435.07358,248.258295 435.301914,246.702774 435.301914,245.218585 L435.301914,207.200701 L446.090773,207.200701 L446.090773,245.561088 Z M457.10321,207.200701 L478.167173,207.200701 C481.078467,207.200701 483.889821,207.471847 486.601321,208.014147 C489.31282,208.556447 491.724591,209.484051 493.836706,210.796987 C495.948821,212.109924 497.63278,213.879507 498.888632,216.105791 C500.144484,218.332075 500.772401,221.1577 500.772401,224.582752 C500.772401,228.978235 499.55938,232.66011 497.133302,235.628488 C494.707224,238.596866 491.239411,240.394991 486.729759,241.022918 L502.827422,267.823813 L489.81229,267.823813 L475.769649,242.136054 L467.892069,242.136054 L467.892069,267.823813 L457.10321,267.823813 L457.10321,207.200701 Z M476.283404,232.88846 C477.824677,232.88846 479.365927,232.817106 480.907201,232.674396 C482.448474,232.531685 483.861286,232.189185 485.145681,231.646885 C486.430075,231.104586 487.471846,230.276877 488.271025,229.163735 C489.070204,228.050594 489.469787,226.495073 489.469787,224.497126 C489.469787,222.727516 489.098745,221.300432 488.356651,220.215832 C487.614556,219.131233 486.644139,218.317795 485.445371,217.775495 C484.246603,217.233195 482.919416,216.876425 481.463769,216.705172 C480.008122,216.533919 478.595309,216.448294 477.225288,216.448294 L467.892069,216.448294 L467.892069,232.88846 L476.283404,232.88846 Z M509.044811,207.200701 L525.484977,207.200701 L541.668265,249.67113 L558.022805,207.200701 L574.29172,207.200701 L574.29172,267.823813 L564.016616,267.823813 L564.016616,217.475805 L563.845364,217.475805 L545.435803,267.823813 L537.900727,267.823813 L519.491166,217.475805 L519.319915,217.475805 L519.319915,267.823813 L509.044811,267.823813 L509.044811,207.200701 Z M585.817912,207.200701 L625.976443,207.200701 L625.976443,216.96205 L596.606771,216.96205 L596.606771,231.86095 L624.435177,231.86095 L624.435177,241.622299 L596.606771,241.622299 L596.606771,258.062465 L627.517708,258.062465 L627.517708,267.823813 L585.817912,267.823813 L585.817912,207.200701 Z M648.291495,216.96205 L629.710682,216.96205 L629.710682,207.200701 L677.661166,207.200701 L677.661166,216.96205 L659.080353,216.96205 L659.080353,267.823813 L648.291495,267.823813 L648.291495,216.96205 Z M747.465274,221.414595 C745.23899,219.017058 743.084094,217.418725 741.000521,216.619546 C738.916948,215.820367 736.819135,215.420784 734.70702,215.420784 C731.567389,215.420784 728.727493,215.977347 726.187246,217.090488 C723.647,218.20363 721.463562,219.74488 719.636868,221.714285 C717.810173,223.68369 716.397361,225.981294 715.398387,228.607167 C714.399414,231.23304 713.899935,234.058665 713.899935,237.084128 C713.899935,240.337927 714.399414,243.334802 715.398387,246.074844 C716.397361,248.814885 717.810173,251.183843 719.636868,253.18179 C721.463562,255.179737 723.647,256.749529 726.187246,257.891213 C728.727493,259.032897 731.567389,259.60373 734.70702,259.60373 C737.16164,259.60373 739.54487,259.018626 741.856779,257.8484 C744.168689,256.678174 746.323585,254.808695 748.321532,252.239906 L757.226622,258.57622 C754.486581,262.343777 751.147205,265.083777 747.208396,266.796303 C743.269586,268.508829 739.073961,269.365079 734.621394,269.365079 C729.94049,269.365079 725.644969,268.608724 721.734701,267.095993 C717.824434,265.583262 714.456517,263.442637 711.630849,260.674053 C708.805182,257.90547 706.593202,254.580365 704.994845,250.69864 C703.396487,246.816915 702.597321,242.507123 702.597321,237.769135 C702.597321,232.916978 703.396487,228.50729 704.994845,224.539939 C706.593202,220.572587 708.805182,217.190399 711.630849,214.393274 C714.456517,211.596148 717.824434,209.441252 721.734701,207.928521 C725.644969,206.41579 729.94049,205.659436 734.621394,205.659436 C738.731456,205.659436 742.541769,206.387248 746.052447,207.842895 C749.563125,209.298542 752.831146,211.767396 755.856608,215.249532 L747.465274,221.414595 Z M758.991466,237.769135 C758.991466,232.916978 759.790633,228.50729 761.388991,224.539939 C762.987348,220.572587 765.199327,217.190399 768.024995,214.393274 C770.850663,211.596148 774.21858,209.441252 778.128847,207.928521 C782.039114,206.41579 786.334636,205.659436 791.01554,205.659436 C795.753528,205.602351 800.091862,206.301622 804.030671,207.757269 C807.96948,209.212916 811.365939,211.339271 814.220149,214.136396 C817.074359,216.933522 819.300609,220.301439 820.898966,224.240248 C822.497324,228.179058 823.29649,232.574475 823.29649,237.426631 C823.29649,242.164619 822.497324,246.474411 820.898966,250.356137 C819.300609,254.237862 817.074359,257.577237 814.220149,260.374363 C811.365939,263.171488 807.96948,265.354926 804.030671,266.924742 C800.091862,268.494557 795.753528,269.307994 791.01554,269.365079 C786.334636,269.365079 782.039114,268.608724 778.128847,267.095993 C774.21858,265.583262 770.850663,263.442637 768.024995,260.674053 C765.199327,257.90547 762.987348,254.580365 761.388991,250.69864 C759.790633,246.816915 758.991466,242.507123 758.991466,237.769135 Z M770.29408,237.084128 C770.29408,240.337927 770.79356,243.334802 771.792533,246.074844 C772.791506,248.814885 774.204319,251.183843 776.031013,253.18179 C777.857708,255.179737 780.041145,256.749529 782.581392,257.891213 C785.121639,259.032897 787.961535,259.60373 791.101165,259.60373 C794.240796,259.60373 797.094963,259.032897 799.663752,257.891213 C802.232541,256.749529 804.430249,255.179737 806.256943,253.18179 C808.083638,251.183843 809.49645,248.814885 810.495424,246.074844 C811.494397,243.334802 811.993876,240.337927 811.993876,237.084128 C811.993876,234.058665 811.494397,231.23304 810.495424,228.607167 C809.49645,225.981294 808.083638,223.68369 806.256943,221.714285 C804.430249,219.74488 802.232541,218.20363 799.663752,217.090488 C797.094963,215.977347 794.240796,215.420784 791.101165,215.420784 C787.961535,215.420784 785.121639,215.977347 782.581392,217.090488 C780.041145,218.20363 777.857708,219.74488 776.031013,221.714285 C774.204319,223.68369 772.791506,225.981294 771.792533,228.607167 C770.79356,231.23304 770.29408,234.058665 770.29408,237.084128 Z M831.312023,207.200701 L870.443043,207.200701 L870.443043,216.96205 L842.100882,216.96205 L842.100882,232.88846 L868.816151,232.88846 L868.816151,242.649809 L842.100882,242.649809 L842.100882,267.823813 L831.312023,267.823813 L831.312023,207.200701 Z M878.201698,207.200701 L917.332718,207.200701 L917.332718,216.96205 L888.990557,216.96205 L888.990557,232.88846 L915.705826,232.88846 L915.705826,242.649809 L888.990557,242.649809 L888.990557,267.823813 L878.201698,267.823813 L878.201698,207.200701 Z M925.091372,207.200701 L965.249903,207.200701 L965.249903,216.96205 L935.880231,216.96205 L935.880231,231.86095 L963.708637,231.86095 L963.708637,241.622299 L935.880231,241.622299 L935.880231,258.062465 L966.791168,258.062465 L966.791168,267.823813 L925.091372,267.823813 L925.091372,207.200701 Z M975.149204,207.200701 L1015.30773,207.200701 L1015.30773,216.96205 L985.938063,216.96205 L985.938063,231.86095 L1013.76647,231.86095 L1013.76647,241.622299 L985.938063,241.622299 L985.938063,258.062465 L1016.849,258.062465 L1016.849,267.823813 L975.149204,267.823813 L975.149204,207.200701 Z" id="GOURMET-COFFEE" fill="#582302"></path>
            <path d="M408,572.967459 L459.26323,572.967459 L459.26323,585.428031 L421.772211,585.428031 L421.772211,604.446798 L457.295771,604.446798 L457.295771,616.90737 L421.772211,616.90737 L421.772211,637.893597 L461.230689,637.893597 L461.230689,650.354169 L408,650.354169 L408,572.967459 Z M509.828134,589.581555 C508.37075,587.468348 506.421528,585.9199 503.980409,584.936166 C501.539291,583.952432 498.97069,583.460572 496.274529,583.460572 C494.671407,583.460572 493.12296,583.642742 491.629141,584.007088 C490.135322,584.371434 488.787262,584.954379 487.58492,585.75594 C486.382578,586.557502 485.417076,587.595872 484.688384,588.871083 C483.959692,590.146295 483.595351,591.658308 483.595351,593.407169 C483.595351,596.03046 484.506202,598.034333 486.327933,599.418848 C488.149663,600.803363 490.408574,602.005687 493.104735,603.025856 C495.800895,604.046025 498.752054,605.029744 501.958299,605.977044 C505.164544,606.924344 508.115703,608.23597 510.811863,609.911962 C513.508024,611.587953 515.766936,613.810431 517.588666,616.579461 C519.410396,619.34849 520.321247,623.02833 520.321247,627.61909 C520.321247,631.772635 519.556132,635.397823 518.025879,638.494765 C516.495625,641.591706 514.437101,644.160307 511.850244,646.200645 C509.263388,648.240982 506.257578,649.771213 502.832725,650.791382 C499.407873,651.811551 495.800901,652.321627 492.011702,652.321627 C487.202335,652.321627 482.575209,651.520078 478.130188,649.916956 C473.685166,648.313833 469.85959,645.617713 466.653345,641.828514 L477.037155,631.772614 C478.713147,634.323036 480.917407,636.308692 483.650003,637.729642 C486.382598,639.150591 489.279105,639.861055 492.339612,639.861055 C493.942735,639.861055 495.545833,639.642451 497.148956,639.205236 C498.752078,638.768021 500.20944,638.112208 501.521086,637.237777 C502.832732,636.363347 503.889319,635.252108 504.690881,633.904028 C505.492442,632.555947 505.893217,631.0075 505.893217,629.258639 C505.893217,626.41674 504.982365,624.230697 503.160635,622.700443 C501.338905,621.17019 499.079993,619.876781 496.383833,618.820177 C493.687672,617.763574 490.736514,616.761637 487.530268,615.814338 C484.324023,614.867038 481.372865,613.573629 478.676704,611.934072 C475.980544,610.294515 473.721632,608.108471 471.899902,605.375876 C470.078172,602.643281 469.16732,598.981658 469.16732,594.390898 C469.16732,590.383092 469.987087,586.921857 471.626644,584.007088 C473.266201,581.09232 475.41581,578.669455 478.075536,576.738421 C480.735262,574.807387 483.777506,573.368242 487.202359,572.420942 C490.627211,571.473643 494.124881,571 497.695472,571 C501.776147,571 505.729243,571.619379 509.554876,572.858155 C513.380509,574.096932 516.823528,576.137239 519.884034,578.979138 L509.828134,589.581555 Z M547.604556,585.428031 L523.885748,585.428031 L523.885748,572.967459 L585.095575,572.967459 L585.095575,585.428031 L561.376767,585.428031 L561.376767,650.354169 L547.604556,650.354169 L547.604556,585.428031 Z M578.276266,642.70294 C578.276266,640.371126 579.132466,638.367253 580.844893,636.691261 C582.557319,635.015269 584.615843,634.177286 587.020527,634.177286 C589.352342,634.177286 591.392649,634.978835 593.14151,636.581958 C594.890371,638.18508 595.764788,640.152519 595.764788,642.484334 C595.764788,644.816148 594.908588,646.820021 593.196161,648.496013 C591.483735,650.172005 589.425211,651.009988 587.020527,651.009988 C585.85462,651.009988 584.743381,650.791384 583.686778,650.354169 C582.630174,649.916953 581.701106,649.334009 580.899544,648.605316 C580.097983,647.876624 579.460387,647.002207 578.986737,645.982038 C578.513087,644.961869 578.276266,643.868848 578.276266,642.70294 Z M659.075667,588.051309 L644.538333,601.49561 L636.887105,592.423439 L660.278003,572.967459 L672.192058,572.967459 L672.192058,650.354169 L659.075667,650.354169 L659.075667,588.051309 Z M723.959298,571.65582 C727.238412,571.65582 730.31709,572.111245 733.195424,573.02211 C736.073757,573.932975 738.587707,575.244601 740.737349,576.957028 C742.886991,578.669454 744.581174,580.782629 745.819951,583.296617 C747.058727,585.810605 747.678106,588.707112 747.678106,591.986226 C747.678106,596.139771 746.712604,599.783177 744.78157,602.916553 C742.850536,606.049929 739.917594,608.199538 735.982657,609.365445 L735.982657,609.584052 C737.804387,609.948398 739.571439,610.695296 741.283865,611.824769 C742.996292,612.954241 744.508305,614.338735 745.819951,615.978293 C747.131596,617.61785 748.169967,619.494204 748.935094,621.607411 C749.70022,623.720618 750.082778,625.979529 750.082778,628.384213 C750.082778,632.246281 749.390531,635.616431 748.006016,638.494765 C746.621501,641.373098 744.763364,643.795963 742.43155,645.763432 C740.099735,647.7309 737.330747,649.20648 734.124502,650.190214 C730.918257,651.173948 727.529889,651.665808 723.959298,651.665808 C720.315838,651.665808 716.909254,651.173948 713.739443,650.190214 C710.569633,649.20648 707.818861,647.7309 705.487047,645.763432 C703.155232,643.795963 701.297095,641.373098 699.91258,638.494765 C698.528065,635.616431 697.835818,632.246281 697.835818,628.384213 C697.835818,625.979529 698.218376,623.720618 698.983503,621.607411 C699.748629,619.494204 700.787,617.61785 702.098646,615.978293 C703.410291,614.338735 704.922305,612.954241 706.634731,611.824769 C708.347157,610.695296 710.114209,609.948398 711.935939,609.584052 L711.935939,609.365445 C708.001002,608.199538 705.068061,606.049929 703.137027,602.916553 C701.205993,599.783177 700.24049,596.139771 700.24049,591.986226 C700.24049,588.707112 700.859869,585.810605 702.098646,583.296617 C703.337422,580.782629 705.031606,578.669454 707.181247,576.957028 C709.330889,575.244601 711.844839,573.932975 714.723172,573.02211 C717.601506,572.111245 720.680184,571.65582 723.959298,571.65582 Z M723.959298,582.804752 C720.607315,582.804752 718.00228,583.824906 716.144115,585.865244 C714.28595,587.905581 713.356882,590.383097 713.356882,593.297866 C713.356882,596.358372 714.304167,598.926973 716.198767,601.003746 C718.093366,603.080518 720.680184,604.118889 723.959298,604.118889 C725.416682,604.118889 726.782959,603.845633 728.058171,603.299114 C729.333382,602.752595 730.462837,601.98748 731.446572,601.003746 C732.430306,600.020011 733.195421,598.872339 733.74194,597.560693 C734.288459,596.249047 734.561715,594.828119 734.561715,593.297866 C734.561715,590.383097 733.559778,587.905581 731.555875,585.865244 C729.551972,583.824906 727.019805,582.804752 723.959298,582.804752 Z M723.959298,614.612002 C722.210437,614.612002 720.534471,614.903474 718.931348,615.486428 C717.328226,616.069382 715.943731,616.907365 714.777824,618.000403 C713.611917,619.093441 712.682848,620.38685 711.990591,621.880669 C711.298333,623.374487 710.95221,624.995803 710.95221,626.744664 C710.95221,630.460993 712.172751,633.466803 714.613869,635.762183 C717.054988,638.057563 720.170099,639.205236 723.959298,639.205236 C727.748497,639.205236 730.863609,638.057563 733.304727,635.762183 C735.745846,633.466803 736.966386,630.460993 736.966386,626.744664 C736.966386,624.995803 736.620263,623.374487 735.928005,621.880669 C735.235748,620.38685 734.30668,619.093441 733.140772,618.000403 C731.974865,616.907365 730.590371,616.069382 728.987248,615.486428 C727.384126,614.903474 725.708159,614.612002 723.959298,614.612002 Z M758.019409,572.967459 L810.594279,572.967459 L810.594279,584.990818 L779.661455,650.354169 L764.249695,650.354169 L795.838338,585.428031 L758.019409,585.428031 L758.019409,572.967459 Z M863.017338,572.967459 L844.435783,601.604914 L844.65439,601.82352 C845.455951,601.386305 846.530756,601.058398 847.878836,600.839791 C849.226916,600.621183 850.556759,600.511881 851.868405,600.511881 C855.293258,600.511881 858.426587,601.167694 861.268486,602.47934 C864.110385,603.790985 866.569684,605.576254 868.646456,607.8352 C870.723228,610.094145 872.326327,612.717397 873.4558,615.705034 C874.585272,618.692672 875.15,621.862435 875.15,625.214418 C875.15,629.222225 874.457753,632.86563 873.073238,636.144745 C871.688723,639.423859 869.775935,642.211064 867.334817,644.506444 C864.893698,646.801824 861.978974,648.568876 858.590556,649.807652 C855.202138,651.046429 851.540515,651.665808 847.605578,651.665808 C843.524902,651.665808 839.808629,651.064646 836.456645,649.862304 C833.104662,648.659962 830.208154,646.929344 827.767036,644.670399 C825.325917,642.411454 823.431346,639.642465 822.083266,636.363351 C820.735186,633.084237 820.061156,629.404397 820.061156,625.323722 C820.061156,621.243046 820.735186,617.544989 822.083266,614.22944 C823.431346,610.913892 825.161964,607.543741 827.275171,604.118889 L847.059062,572.967459 L863.017338,572.967459 Z M833.833367,625.105115 C833.833367,627.072584 834.197707,628.912503 834.926399,630.62493 C835.655092,632.337356 836.657028,633.831152 837.932239,635.106364 C839.20745,636.381575 840.701247,637.383511 842.413673,638.112203 C844.126099,638.840895 845.966019,639.205236 847.933488,639.205236 C849.900956,639.205236 851.740876,638.840895 853.453302,638.112203 C855.165729,637.383511 856.659525,636.381575 857.934736,635.106364 C859.209947,633.831152 860.211884,632.337356 860.940576,630.62493 C861.669268,628.912503 862.033609,627.072584 862.033609,625.105115 C862.033609,623.137646 861.669268,621.297727 860.940576,619.5853 C860.211884,617.872874 859.209947,616.379078 857.934736,615.103866 C856.659525,613.828655 855.165729,612.826719 853.453302,612.098027 C851.740876,611.369335 849.900956,611.004994 847.933488,611.004994 C845.966019,611.004994 844.126099,611.369335 842.413673,612.098027 C840.701247,612.826719 839.20745,613.828655 837.932239,615.103866 C836.657028,616.379078 835.655092,617.872874 834.926399,619.5853 C834.197707,621.297727 833.833367,623.137646 833.833367,625.105115 Z" id="EST.-1876" fill="#582302"></path>
        </g>
    </g>
</svg>